<svg xmlns="http://www.w3.org/2000/svg" xmlns:xlink="http://www.w3.org/1999/xlink" fill="none" version="1.1" width="128" height="128" viewBox="0 0 128 128"><defs><clipPath id="master_svg0_81_423"><rect x="0" y="0" width="128" height="128" rx="0"/></clipPath></defs><g clip-path="url(#master_svg0_81_423)"><g><g transform="matrix(0.9843112230300903,0.17644095420837402,-0.8104630708694458,0.585789680480957,46.8432993698043,8.854230532700967)" style="opacity:0.6000000238418579;"><path d="M110.5485864868164,142.66827344970704L81.78874376681641,151.330773449707L130.20868648681642,57.25479344970703C130.8393864868164,56.02937644970703,132.5198864868164,55.85011544970703,133.39528648681642,56.91487244970703C133.4291864868164,56.95601644970703,133.4612864868164,56.99855044970703,133.4914864868164,57.042365449707034L178.5192864868164,122.19537344970703L151.4132864868164,130.35957344970703C149.3418864868164,130.98347344970705,147.0968864868164,130.58367344970702,145.36868648681642,129.28317344970702L125.44298648681641,114.28837344970702L114.82228648681641,138.862473449707C114.02878648681641,140.69847344970702,112.4649864868164,142.09107344970704,110.5485864868164,142.66827344970704ZM117.5034864868164,98.79427344970703C116.0959864868164,98.79427344970703,114.95498648681641,97.65427344970703,114.95498648681641,96.24807344970702L114.95498648681641,95.99987344970702C114.95498648681641,94.59367344970704,116.0959864868164,93.45367344970703,117.5034864868164,93.45367344970703C118.9109864868164,93.45367344970703,120.0519864868164,94.59367344970704,120.0519864868164,95.99987344970702L120.0519864868164,96.24807344970702C120.0519864868164,97.65427344970703,118.9109864868164,98.79427344970703,117.5034864868164,98.79427344970703Z" fill-rule="evenodd" fill="#000000" fill-opacity="0.30000001192092896"/></g><g style="opacity:0.6000000238418579;"><path d="M39.99996092758178,112.8302L9.790360927581787,112.8302L62.67186092758179,17.68147C63.591460927581785,16.02673,65.3394609275818,15,67.23686092758179,15C69.1261609275818,15,70.86796092758178,16.01805,71.79086092758179,17.66175L125.22536092758179,112.8302L95.22666092758179,112.8302C92.74856092758179,112.8302,90.46726092758179,111.4843,89.27456092758179,109.3185L68.70536092758178,71.9691C68.8530609275818,71.87010000000001,68.9934609275818,71.7558,69.12426092758179,71.6265L69.32166092758179,71.4314C70.44036092758179,70.3258,70.44036092758179,68.5333,69.32166092758179,67.4277C68.20306092758179,66.3221,66.38936092758178,66.3221,65.27076092758179,67.4277L65.07336092758179,67.6228C63.95476092758179,68.7284,63.95476092758179,70.5209,65.07336092758179,71.6265C65.27246092758179,71.8232,65.4935609275818,71.985,65.72886092758179,72.1117L45.999860927581786,109.2301C44.82256092758179,111.4451,42.514160927581784,112.8302,39.99996092758178,112.8302Z" fill-rule="evenodd" fill="#FFFFFF" fill-opacity="1"/></g><g style="opacity:0.6000000238418579;"><path d="M36.60478046379089,112.8302L6.3951804637908936,112.8302L59.276680463790896,17.68147C60.19628046379089,16.02673,61.944280463790896,15,63.841680463790894,15C65.7309804637909,15,67.47278046379088,16.01805,68.3956804637909,17.66175L121.8301804637909,112.8302L91.8314804637909,112.8302C89.3533804637909,112.8302,87.0720804637909,111.4843,85.8793804637909,109.3185L65.31018046379089,71.9691C65.4578804637909,71.87010000000001,65.5982804637909,71.7558,65.7290804637909,71.6265L65.9264804637909,71.4314C67.0451804637909,70.3258,67.0451804637909,68.5333,65.9264804637909,67.4277C64.8078804637909,66.3221,62.99418046379089,66.3221,61.8755804637909,67.4277L61.678180463790895,67.6228C60.559580463790894,68.7284,60.559580463790894,70.5209,61.678180463790895,71.6265C61.877280463790896,71.8232,62.098380463790896,71.985,62.33368046379089,72.1117L42.60468046379089,109.2301C41.4273804637909,111.4451,39.11898046379089,112.8302,36.60478046379089,112.8302Z" fill-rule="evenodd" fill="#FFFFFF" fill-opacity="1"/></g><g><path d="M33.209599999999995,112.8302L3,112.8302L55.8815,17.68147C56.8011,16.02673,58.5491,15,60.4465,15C62.3358,15,64.07759999999999,16.01805,65.0005,17.66175L118.435,112.8302L88.4363,112.8302C85.9582,112.8302,83.6769,111.4843,82.4842,109.3185L61.915,71.9691C62.0627,71.87010000000001,62.2031,71.7558,62.3339,71.6265L62.5313,71.4314C63.65,70.3258,63.65,68.5333,62.5313,67.4277C61.4127,66.3221,59.599,66.3221,58.4804,67.4277L58.283,67.6228C57.1644,68.7284,57.1644,70.5209,58.283,71.6265C58.4821,71.8232,58.7032,71.985,58.9385,72.1117L39.2095,109.2301C38.0322,111.4451,35.7238,112.8302,33.209599999999995,112.8302Z" fill-rule="evenodd" fill="#FFFFFF" fill-opacity="1"/></g></g></g></svg>